<svg version="1.1" viewBox="0.0 0.0 720.0 350.0" fill="none" stroke="none" stroke-linecap="square" stroke-miterlimit="10" xmlns:xlink="http://www.w3.org/1999/xlink" xmlns="http://www.w3.org/2000/svg"><clipPath id="p.0"><path d="m0 0l720.0 0l0 540.0l-720.0 0l0 -540.0z" clip-rule="nonzero"/></clipPath><g clip-path="url(#p.0)"><path fill="#000000" fill-opacity="0.0" d="m0 0l720.0 0l0 540.0l-720.0 0z" fill-rule="evenodd"/><path fill="#000000" fill-opacity="0.0" d="m540.063 2.9265091l1.0708618 323.1496" fill-rule="evenodd"/><path stroke="#000000" stroke-width="8.0" stroke-linejoin="round" stroke-linecap="butt" stroke-dasharray="32.0,24.0" d="m540.063 2.9265091l1.0708618 323.1496" fill-rule="evenodd"/><path fill="#d9d2e9" d="m370.61154 10.622201l0 0c0 -4.250213 3.4454956 -7.695692 7.695709 -7.695692l120.82907 0c2.0410461 0 3.9984741 0.8107939 5.441681 2.2540162c1.4432373 1.443222 2.2540283 3.4006515 2.2540283 5.4416757l0 30.781845c0 4.2502136 -3.4454956 7.695694 -7.695709 7.695694l-120.82907 0c-4.2502136 0 -7.695709 -3.4454803 -7.695709 -7.695694z" fill-rule="evenodd"/><path stroke="#000000" stroke-width="1.0" stroke-linejoin="round" stroke-linecap="butt" d="m370.61154 10.622201l0 0c0 -4.250213 3.4454956 -7.695692 7.695709 -7.695692l120.82907 0c2.0410461 0 3.9984741 0.8107939 5.441681 2.2540162c1.4432373 1.443222 2.2540283 3.4006515 2.2540283 5.4416757l0 30.781845c0 4.2502136 -3.4454956 7.695694 -7.695709 7.695694l-120.82907 0c-4.2502136 0 -7.695709 -3.4454803 -7.695709 -7.695694z" fill-rule="evenodd"/><path fill="#000000" d="m421.31143 30.106247l5.390625 0l0 2.046875l-7.9375 0l0 -12.3125l2.546875 0l0 10.265625zm6.3051453 -2.609375q0 -1.375 0.515625 -2.4375q0.53125 -1.0625 1.515625 -1.640625q0.984375 -0.59375 2.28125 -0.59375q1.859375 0 3.03125 1.140625q1.171875 1.125 1.3125 3.078125l0.015625 0.625q0 2.109375 -1.1875 3.390625q-1.171875 1.265625 -3.15625 1.265625q-1.96875 0 -3.15625 -1.265625q-1.171875 -1.28125 -1.171875 -3.453125l0 -0.109375zm2.4375 0.171875q0 1.296875 0.484375 2.0q0.5 0.6875 1.421875 0.6875q0.875 0 1.375 -0.6875q0.5 -0.6875 0.5 -2.171875q0 -1.28125 -0.5 -1.984375q-0.5 -0.703125 -1.40625 -0.703125q-0.890625 0 -1.390625 0.703125q-0.484375 0.6875 -0.484375 2.15625zm11.547821 2.6875q0.671875 0 1.09375 -0.375q0.421875 -0.375 0.4375 -1.0l2.296875 0q0 0.9375 -0.5 1.71875q-0.5 0.765625 -1.375 1.203125q-0.859375 0.421875 -1.921875 0.421875q-1.953125 0 -3.09375 -1.25q-1.125 -1.25 -1.125 -3.453125l0 -0.15625q0 -2.109375 1.125 -3.375q1.125 -1.265625 3.078125 -1.265625q1.71875 0 2.75 0.984375q1.046875 0.96875 1.0625 2.59375l-2.296875 0q-0.015625 -0.703125 -0.4375 -1.140625q-0.421875 -0.453125 -1.109375 -0.453125q-0.859375 0 -1.296875 0.625q-0.4375 0.625 -0.4375 2.015625l0 0.25q0 1.421875 0.421875 2.046875q0.4375 0.609375 1.328125 0.609375zm10.536346 1.796875q-0.171875 -0.328125 -0.25 -0.828125q-0.890625 1.0 -2.3125 1.0q-1.34375 0 -2.234375 -0.78125q-0.875 -0.78125 -0.875 -1.96875q0 -1.453125 1.078125 -2.21875q1.078125 -0.78125 3.109375 -0.796875l1.125 0l0 -0.53125q0 -0.625 -0.328125 -1.0q-0.3125 -0.390625 -1.015625 -0.390625q-0.625 0 -0.984375 0.296875q-0.34375 0.296875 -0.34375 0.8125l-2.4375 0q0 -0.796875 0.484375 -1.46875q0.5 -0.671875 1.390625 -1.0625q0.890625 -0.390625 2.015625 -0.390625q1.6875 0 2.671875 0.859375q1.0 0.84375 1.0 2.390625l0 3.96875q0.015625 1.296875 0.375 1.96875l0 0.140625l-2.46875 0zm-2.03125 -1.703125q0.546875 0 1.0 -0.234375q0.453125 -0.25 0.671875 -0.65625l0 -1.5625l-0.90625 0q-1.84375 0 -1.953125 1.265625l-0.015625 0.140625q0 0.453125 0.3125 0.75q0.328125 0.296875 0.890625 0.296875zm8.587067 1.703125l-2.453125 0l0 -13.0l2.453125 0l0 13.0z" fill-rule="nonzero"/><path fill="#f4cccc" d="m574.3648 10.622201l0 0c0 -4.250213 3.4454956 -7.695692 7.6957397 -7.695692l120.82904 0c2.0410767 0 3.9984741 0.8107939 5.4417114 2.2540162c1.4432373 1.443222 2.2540283 3.4006515 2.2540283 5.4416757l0 30.781845c0 4.2502136 -3.4454956 7.695694 -7.6957397 7.695694l-120.82904 0c-4.250244 0 -7.6957397 -3.4454803 -7.6957397 -7.695694z" fill-rule="evenodd"/><path stroke="#000000" stroke-width="1.0" stroke-linejoin="round" stroke-linecap="butt" d="m574.3648 10.622201l0 0c0 -4.250213 3.4454956 -7.695692 7.6957397 -7.695692l120.82904 0c2.0410767 0 3.9984741 0.8107939 5.4417114 2.2540162c1.4432373 1.443222 2.2540283 3.4006515 2.2540283 5.4416757l0 30.781845c0 4.2502136 -3.4454956 7.695694 -7.6957397 7.695694l-120.82904 0c-4.250244 0 -7.6957397 -3.4454803 -7.6957397 -7.695694z" fill-rule="evenodd"/><path fill="#000000" d="m617.9086 27.637497l-2.015625 0l0 4.515625l-2.546875 0l0 -12.3125l4.578125 0q2.1875 0 3.375 0.96875q1.1875 0.96875 1.1875 2.75q0 1.265625 -0.546875 2.109375q-0.546875 0.828125 -1.65625 1.328125l2.65625 5.03125l0 0.125l-2.71875 0l-2.3125 -4.515625zm-2.015625 -2.046875l2.046875 0q0.953125 0 1.46875 -0.484375q0.53125 -0.484375 0.53125 -1.34375q0 -0.875 -0.5 -1.375q-0.484375 -0.5 -1.515625 -0.5l-2.03125 0l0 3.703125zm12.574158 6.734375q-2.015625 0 -3.28125 -1.234375q-1.265625 -1.234375 -1.265625 -3.296875l0 -0.234375q0 -1.375 0.53125 -2.453125q0.53125 -1.09375 1.5 -1.6875q0.984375 -0.59375 2.234375 -0.59375q1.890625 0 2.96875 1.1875q1.078125 1.1875 1.078125 3.359375l0 1.0l-5.828125 0q0.109375 0.890625 0.703125 1.4375q0.609375 0.546875 1.515625 0.546875q1.40625 0 2.203125 -1.03125l1.203125 1.34375q-0.546875 0.78125 -1.484375 1.21875q-0.9375 0.4375 -2.078125 0.4375zm-0.28125 -7.515625q-0.734375 0 -1.1875 0.5q-0.453125 0.484375 -0.578125 1.390625l3.40625 0l0 -0.1875q-0.015625 -0.8125 -0.4375 -1.25q-0.421875 -0.453125 -1.203125 -0.453125zm7.725708 -1.8125l0.078125 1.03125q0.96875 -1.203125 2.625 -1.203125q1.765625 0 2.4375 1.40625q0.953125 -1.40625 2.75 -1.40625q1.484375 0 2.203125 0.875q0.734375 0.859375 0.734375 2.609375l0 5.84375l-2.453125 0l0 -5.84375q0 -0.765625 -0.3125 -1.125q-0.296875 -0.359375 -1.0625 -0.359375q-1.109375 0 -1.53125 1.046875l0.015625 6.28125l-2.453125 0l0 -5.828125q0 -0.796875 -0.3125 -1.140625q-0.3125 -0.359375 -1.0625 -0.359375q-1.046875 0 -1.5 0.859375l0 6.46875l-2.453125 0l0 -9.15625l2.296875 0zm12.329468 4.5q0 -1.375 0.515625 -2.4375q0.53125 -1.0625 1.515625 -1.640625q0.984375 -0.59375 2.28125 -0.59375q1.859375 0 3.03125 1.140625q1.171875 1.125 1.3125 3.078125l0.015625 0.625q0 2.109375 -1.1875 3.390625q-1.171875 1.265625 -3.15625 1.265625q-1.96875 0 -3.15625 -1.265625q-1.171875 -1.28125 -1.171875 -3.453125l0 -0.109375zm2.4375 0.171875q0 1.296875 0.484375 2.0q0.5 0.6875 1.421875 0.6875q0.875 0 1.375 -0.6875q0.5 -0.6875 0.5 -2.171875q0 -1.28125 -0.5 -1.984375q-0.5 -0.703125 -1.40625 -0.703125q-0.890625 0 -1.390625 0.703125q-0.484375 0.6875 -0.484375 2.15625zm10.657227 -6.921875l0 2.25l1.578125 0l0 1.796875l-1.578125 0l0 4.5625q0 0.515625 0.1875 0.734375q0.203125 0.21875 0.765625 0.21875q0.40625 0 0.71875 -0.0625l0 1.859375q-0.71875 0.21875 -1.484375 0.21875q-2.578125 0 -2.625 -2.59375l0 -4.9375l-1.34375 0l0 -1.796875l1.34375 0l0 -2.25l2.4375 0zm7.1518555 11.578125q-2.015625 0 -3.28125 -1.234375q-1.265625 -1.234375 -1.265625 -3.296875l0 -0.234375q0 -1.375 0.53125 -2.453125q0.53125 -1.09375 1.5 -1.6875q0.984375 -0.59375 2.234375 -0.59375q1.890625 0 2.96875 1.1875q1.078125 1.1875 1.078125 3.359375l0 1.0l-5.828125 0q0.109375 0.890625 0.703125 1.4375q0.609375 0.546875 1.515625 0.546875q1.40625 0 2.203125 -1.03125l1.203125 1.34375q-0.546875 0.78125 -1.484375 1.21875q-0.9375 0.4375 -2.078125 0.4375zm-0.28125 -7.515625q-0.734375 0 -1.1875 0.5q-0.453125 0.484375 -0.578125 1.390625l3.40625 0l0 -0.1875q-0.015625 -0.8125 -0.4375 -1.25q-0.421875 -0.453125 -1.203125 -0.453125z" fill-rule="nonzero"/><path fill="#d9ead3" d="m190.01292 10.622201l0 0c0 -4.250213 3.4454803 -7.695692 7.6956787 -7.695692l120.82909 0c2.0410461 0 3.9984741 0.8107939 5.441681 2.2540162c1.4432373 1.443222 2.2540283 3.4006515 2.2540283 5.4416757l0 30.781845c0 4.2502136 -3.4454956 7.695694 -7.695709 7.695694l-120.82909 0c-4.2501984 0 -7.6956787 -3.4454803 -7.6956787 -7.695694z" fill-rule="evenodd"/><path stroke="#000000" stroke-width="1.0" stroke-linejoin="round" stroke-linecap="butt" d="m190.01292 10.622201l0 0c0 -4.250213 3.4454803 -7.695692 7.6956787 -7.695692l120.82909 0c2.0410461 0 3.9984741 0.8107939 5.441681 2.2540162c1.4432373 1.443222 2.2540283 3.4006515 2.2540283 5.4416757l0 30.781845c0 4.2502136 -3.4454956 7.695694 -7.695709 7.695694l-120.82909 0c-4.2501984 0 -7.6956787 -3.4454803 -7.6956787 -7.695694z" fill-rule="evenodd"/><path fill="#000000" d="m215.27304 28.918747q0 -0.71875 -0.515625 -1.09375q-0.5 -0.390625 -1.828125 -0.8125q-1.3125 -0.4375 -2.078125 -0.84375q-2.09375 -1.140625 -2.09375 -3.0625q0 -1.0 0.5625 -1.78125q0.5625 -0.78125 1.609375 -1.21875q1.0625 -0.4375 2.375 -0.4375q1.3125 0 2.34375 0.484375q1.03125 0.46875 1.59375 1.34375q0.578125 0.859375 0.578125 1.96875l-2.53125 0q0 -0.84375 -0.53125 -1.3125q-0.53125 -0.46875 -1.5 -0.46875q-0.9375 0 -1.453125 0.40625q-0.515625 0.390625 -0.515625 1.03125q0 0.59375 0.609375 1.0q0.609375 0.40625 1.78125 0.765625q2.171875 0.65625 3.15625 1.625q0.984375 0.953125 0.984375 2.390625q0 1.59375 -1.21875 2.515625q-1.203125 0.90625 -3.25 0.90625q-1.421875 0 -2.59375 -0.515625q-1.15625 -0.53125 -1.78125 -1.4375q-0.609375 -0.90625 -0.609375 -2.09375l2.546875 0q0 2.03125 2.4375 2.03125q0.90625 0 1.40625 -0.359375q0.515625 -0.375 0.515625 -1.03125zm7.027405 -8.171875l0 2.25l1.578125 0l0 1.796875l-1.578125 0l0 4.5625q0 0.515625 0.1875 0.734375q0.203125 0.21875 0.765625 0.21875q0.40625 0 0.71875 -0.0625l0 1.859375q-0.71875 0.21875 -1.484375 0.21875q-2.578125 0 -2.625 -2.59375l0 -4.9375l-1.34375 0l0 -1.796875l1.34375 0l0 -2.25l2.4375 0zm8.245636 11.40625q-0.171875 -0.328125 -0.25 -0.828125q-0.890625 1.0 -2.3125 1.0q-1.34375 0 -2.234375 -0.78125q-0.875 -0.78125 -0.875 -1.96875q0 -1.453125 1.078125 -2.21875q1.078125 -0.78125 3.109375 -0.796875l1.125 0l0 -0.53125q0 -0.625 -0.328125 -1.0q-0.3125 -0.390625 -1.015625 -0.390625q-0.625 0 -0.984375 0.296875q-0.34375 0.296875 -0.34375 0.8125l-2.4375 0q0 -0.796875 0.484375 -1.46875q0.5 -0.671875 1.390625 -1.0625q0.890625 -0.390625 2.015625 -0.390625q1.6875 0 2.671875 0.859375q1.0 0.84375 1.0 2.390625l0 3.96875q0.015625 1.296875 0.375 1.96875l0 0.140625l-2.46875 0zm-2.03125 -1.703125q0.546875 0 1.0 -0.234375q0.453125 -0.25 0.671875 -0.65625l0 -1.5625l-0.90625 0q-1.84375 0 -1.953125 1.265625l-0.015625 0.140625q0 0.453125 0.3125 0.75q0.328125 0.296875 0.890625 0.296875zm5.6495514 -2.9375q0 -2.109375 1.0 -3.390625q1.015625 -1.296875 2.71875 -1.296875q1.5 0 2.34375 1.03125l0.09375 -0.859375l2.21875 0l0 8.859375q0 1.1875 -0.546875 2.078125q-0.546875 0.890625 -1.546875 1.359375q-0.984375 0.46875 -2.3125 0.46875q-1.0 0 -1.953125 -0.40625q-0.953125 -0.40625 -1.453125 -1.03125l1.078125 -1.5q0.921875 1.03125 2.21875 1.03125q0.984375 0 1.515625 -0.53125q0.546875 -0.515625 0.546875 -1.46875l0 -0.484375q-0.84375 0.953125 -2.234375 0.953125q-1.640625 0 -2.671875 -1.28125q-1.015625 -1.296875 -1.015625 -3.4375l0 -0.09375zm2.453125 0.171875q0 1.25 0.5 1.953125q0.5 0.703125 1.375 0.703125q1.109375 0 1.59375 -0.828125l0 -3.859375q-0.5 -0.828125 -1.578125 -0.828125q-0.890625 0 -1.390625 0.71875q-0.5 0.71875 -0.5 2.140625zm10.37529 4.46875l-2.453125 0l0 -9.15625l2.453125 0l0 9.15625zm-2.59375 -11.53125q0 -0.546875 0.359375 -0.890625q0.375 -0.359375 1.015625 -0.359375q0.625 0 0.984375 0.359375q0.375 0.34375 0.375 0.890625q0 0.5625 -0.375 0.921875q-0.375 0.359375 -1.0 0.359375q-0.609375 0 -0.984375 -0.359375q-0.375 -0.359375 -0.375 -0.921875zm6.859955 2.375l0.078125 1.0625q0.984375 -1.234375 2.625 -1.234375q1.46875 0 2.171875 0.859375q0.71875 0.859375 0.734375 2.546875l0 5.921875l-2.453125 0l0 -5.859375q0 -0.78125 -0.34375 -1.125q-0.328125 -0.34375 -1.125 -0.34375q-1.03125 0 -1.546875 0.875l0 6.453125l-2.4375 0l0 -9.15625l2.296875 0zm7.095398 4.515625q0 -2.109375 1.0 -3.390625q1.015625 -1.296875 2.71875 -1.296875q1.5 0 2.34375 1.03125l0.09375 -0.859375l2.21875 0l0 8.859375q0 1.1875 -0.546875 2.078125q-0.546875 0.890625 -1.546875 1.359375q-0.984375 0.46875 -2.3125 0.46875q-1.0 0 -1.953125 -0.40625q-0.953125 -0.40625 -1.453125 -1.03125l1.078125 -1.5q0.921875 1.03125 2.21875 1.03125q0.984375 0 1.515625 -0.53125q0.546875 -0.515625 0.546875 -1.46875l0 -0.484375q-0.84375 0.953125 -2.234375 0.953125q-1.640625 0 -2.671875 -1.28125q-1.015625 -1.296875 -1.015625 -3.4375l0 -0.09375zm2.453125 0.171875q0 1.25 0.5 1.953125q0.5 0.703125 1.375 0.703125q1.109375 0 1.59375 -0.828125l0 -3.859375q-0.5 -0.828125 -1.578125 -0.828125q-0.890625 0 -1.390625 0.71875q-0.5 0.71875 -0.5 2.140625zm19.237274 1.9375l-4.453125 0l-0.84375 2.53125l-2.703125 0l4.578125 -12.3125l2.359375 0l4.609375 12.3125l-2.703125 0l-0.84375 -2.53125zm-3.765625 -2.0625l3.078125 0l-1.546875 -4.609375l-1.53125 4.609375zm13.440521 -2.265625q-0.5 -0.0625 -0.875 -0.0625q-1.390625 0 -1.8125 0.9375l0 5.984375l-2.453125 0l0 -9.15625l2.3125 0l0.0625 1.09375q0.734375 -1.265625 2.046875 -1.265625q0.40625 0 0.765625 0.109375l-0.046875 2.359375zm5.237671 7.03125q-2.015625 0 -3.28125 -1.234375q-1.265625 -1.234375 -1.265625 -3.296875l0 -0.234375q0 -1.375 0.53125 -2.453125q0.53125 -1.09375 1.5 -1.6875q0.984375 -0.59375 2.234375 -0.59375q1.890625 0 2.96875 1.1875q1.078125 1.1875 1.078125 3.359375l0 1.0l-5.828125 0q0.109375 0.890625 0.703125 1.4375q0.609375 0.546875 1.515625 0.546875q1.40625 0 2.203125 -1.03125l1.203125 1.34375q-0.546875 0.78125 -1.484375 1.21875q-0.9375 0.4375 -2.078125 0.4375zm-0.28125 -7.515625q-0.734375 0 -1.1875 0.5q-0.453125 0.484375 -0.578125 1.390625l3.40625 0l0 -0.1875q-0.015625 -0.8125 -0.4375 -1.25q-0.421875 -0.453125 -1.203125 -0.453125zm10.741333 7.34375q-0.171875 -0.328125 -0.25 -0.828125q-0.890625 1.0 -2.3125 1.0q-1.34375 0 -2.234375 -0.78125q-0.875 -0.78125 -0.875 -1.96875q0 -1.453125 1.078125 -2.21875q1.078125 -0.78125 3.109375 -0.796875l1.125 0l0 -0.53125q0 -0.625 -0.328125 -1.0q-0.3125 -0.390625 -1.015625 -0.390625q-0.625 0 -0.984375 0.296875q-0.34375 0.296875 -0.34375 0.8125l-2.4375 0q0 -0.796875 0.484375 -1.46875q0.5 -0.671875 1.390625 -1.0625q0.890625 -0.390625 2.015625 -0.390625q1.6875 0 2.671875 0.859375q1.0 0.84375 1.0 2.390625l0 3.96875q0.015625 1.296875 0.375 1.96875l0 0.140625l-2.46875 0zm-2.03125 -1.703125q0.546875 0 1.0 -0.234375q0.453125 -0.25 0.671875 -0.65625l0 -1.5625l-0.90625 0q-1.84375 0 -1.953125 1.265625l-0.015625 0.140625q0 0.453125 0.3125 0.75q0.328125 0.296875 0.890625 0.296875z" fill-rule="nonzero"/><path fill="#fce5cd" d="m9.414699 10.622201l0 0c0 -4.250213 3.4454784 -7.695692 7.695691 -7.695692l120.829094 0c2.0410156 0 3.9984436 0.8107939 5.4416656 2.2540162c1.443222 1.443222 2.2540283 3.4006515 2.2540283 5.4416757l0 30.781845c0 4.2502136 -3.4454803 7.695694 -7.695694 7.695694l-120.829094 0c-4.2502127 0 -7.695691 -3.4454803 -7.695691 -7.695694z" fill-rule="evenodd"/><path stroke="#000000" stroke-width="1.0" stroke-linejoin="round" stroke-linecap="butt" d="m9.414699 10.622201l0 0c0 -4.250213 3.4454784 -7.695692 7.695691 -7.695692l120.829094 0c2.0410156 0 3.9984436 0.8107939 5.4416656 2.2540162c1.443222 1.443222 2.2540283 3.4006515 2.2540283 5.4416757l0 30.781845c0 4.2502136 -3.4454803 7.695694 -7.695694 7.695694l-120.829094 0c-4.2502127 0 -7.695691 -3.4454803 -7.695691 -7.695694z" fill-rule="evenodd"/><path fill="#000000" d="m55.984512 18.106247l1.671875 -8.765625l2.53125 0l-2.734375 12.3125l-2.5625 0l-2.0 -8.234375l-2.015625 8.234375l-2.546875 0l-2.734375 -12.3125l2.53125 0l1.671875 8.734375l2.015625 -8.734375l2.15625 0l2.015625 8.765625zm4.766281 -1.109375q0 -1.375 0.515625 -2.4375q0.53125 -1.0625 1.515625 -1.640625q0.984375 -0.59375 2.28125 -0.59375q1.859375 0 3.03125 1.140625q1.171875 1.125 1.3125 3.078125l0.015625 0.625q0 2.109375 -1.1875 3.390625q-1.171875 1.265625 -3.15625 1.265625q-1.96875 0 -3.15625 -1.265625q-1.171875 -1.28125 -1.171875 -3.453125l0 -0.109375zm2.4375 0.171875q0 1.296875 0.484375 2.0q0.5 0.6875 1.421875 0.6875q0.875 0 1.375 -0.6875q0.5 -0.6875 0.5 -2.171875q0 -1.28125 -0.5 -1.984375q-0.5 -0.703125 -1.40625 -0.703125q-0.890625 0 -1.390625 0.703125q-0.484375 0.6875 -0.484375 2.15625zm12.875961 -2.375q-0.5 -0.0625 -0.875 -0.0625q-1.390625 0 -1.8125 0.9375l0 5.984375l-2.453125 0l0 -9.15625l2.3125 0l0.0625 1.09375q0.734375 -1.265625 2.046875 -1.265625q0.40625 0 0.765625 0.109375l-0.046875 2.359375zm4.5078735 3.1875l-0.875 0.875l0 2.796875l-2.453125 0l0 -13.0l2.453125 0l0 7.203125l0.46875 -0.609375l2.34375 -2.75l2.9375 0l-3.3125 3.8125l3.59375 5.34375l-2.8125 0l-2.34375 -3.671875zm8.506332 3.671875l-2.453125 0l0 -9.15625l2.453125 0l0 9.15625zm-2.59375 -11.53125q0 -0.546875 0.359375 -0.890625q0.375 -0.359375 1.015625 -0.359375q0.625 0 0.984375 0.359375q0.375 0.34375 0.375 0.890625q0 0.5625 -0.375 0.921875q-0.375 0.359375 -1.0 0.359375q-0.609375 0 -0.984375 -0.359375q-0.375 -0.359375 -0.375 -0.921875zm6.859955 2.375l0.078125 1.0625q0.984375 -1.234375 2.625 -1.234375q1.46875 0 2.171875 0.859375q0.71875 0.859375 0.734375 2.546875l0 5.921875l-2.453125 0l0 -5.859375q0 -0.78125 -0.34375 -1.125q-0.328125 -0.34375 -1.125 -0.34375q-1.03125 0 -1.546875 0.875l0 6.453125l-2.4375 0l0 -9.15625l2.296875 0zm7.095398 4.515625q0 -2.109375 1.0 -3.390625q1.015625 -1.296875 2.71875 -1.296875q1.5 0 2.34375 1.03125l0.09375 -0.859375l2.21875 0l0 8.859375q0 1.1875 -0.546875 2.078125q-0.546875 0.890625 -1.546875 1.359375q-0.984375 0.46875 -2.3125 0.46875q-1.0 0 -1.953125 -0.40625q-0.953125 -0.40625 -1.453125 -1.03125l1.078125 -1.5q0.921875 1.03125 2.21875 1.03125q0.984375 0 1.515625 -0.53125q0.546875 -0.515625 0.546875 -1.46875l0 -0.484375q-0.84375 0.953125 -2.234375 0.953125q-1.640625 0 -2.671875 -1.28125q-1.015625 -1.296875 -1.015625 -3.4375l0 -0.09375zm2.453125 0.171875q0 1.25 0.5 1.953125q0.5 0.703125 1.375 0.703125q1.109375 0 1.59375 -0.828125l0 -3.859375q-0.5 -0.828125 -1.578125 -0.828125q-0.890625 0 -1.390625 0.71875q-0.5 0.71875 -0.5 2.140625z" fill-rule="nonzero"/><path fill="#000000" d="m43.124817 42.653122l0 -12.3125l3.796875 0q1.625 0 2.90625 0.734375q1.28125 0.71875 2.0 2.078125q0.71875 1.34375 0.71875 3.0625l0 0.5625q0 1.71875 -0.703125 3.0625q-0.703125 1.328125 -2.0 2.0625q-1.28125 0.734375 -2.890625 0.75l-3.828125 0zm2.546875 -10.265625l0 8.21875l1.21875 0q1.5 0 2.28125 -0.96875q0.78125 -0.96875 0.796875 -2.78125l0 -0.65625q0 -1.875 -0.78125 -2.84375q-0.765625 -0.96875 -2.265625 -0.96875l-1.25 0zm11.136597 10.265625l-2.453125 0l0 -9.15625l2.453125 0l0 9.15625zm-2.59375 -11.53125q0 -0.546875 0.359375 -0.890625q0.375 -0.359375 1.015625 -0.359375q0.625 0 0.984375 0.359375q0.375 0.34375 0.375 0.890625q0 0.5625 -0.375 0.921875q-0.375 0.359375 -1.0 0.359375q-0.609375 0 -0.984375 -0.359375q-0.375 -0.359375 -0.375 -0.921875zm9.75058 4.671875q-0.5 -0.0625 -0.875 -0.0625q-1.390625 0 -1.8125 0.9375l0 5.984375l-2.453125 0l0 -9.15625l2.3125 0l0.0625 1.09375q0.734375 -1.265625 2.046875 -1.265625q0.40625 0 0.765625 0.109375l-0.046875 2.359375zm5.237686 7.03125q-2.015625 0 -3.28125 -1.234375q-1.265625 -1.234375 -1.265625 -3.296875l0 -0.234375q0 -1.375 0.53125 -2.453125q0.53125 -1.09375 1.5 -1.6875q0.984375 -0.59375 2.234375 -0.59375q1.890625 0 2.96875 1.1875q1.078125 1.1875 1.078125 3.359375l0 1.0l-5.828125 0q0.109375 0.890625 0.703125 1.4375q0.609375 0.546875 1.515625 0.546875q1.40625 0 2.203125 -1.03125l1.203125 1.34375q-0.546875 0.78125 -1.484375 1.21875q-0.9375 0.4375 -2.078125 0.4375zm-0.28125 -7.515625q-0.734375 0 -1.1875 0.5q-0.453125 0.484375 -0.578125 1.390625l3.40625 0l0 -0.1875q-0.015625 -0.8125 -0.4375 -1.25q-0.421875 -0.453125 -1.203125 -0.453125zm9.241333 5.546875q0.671875 0 1.09375 -0.375q0.421875 -0.375 0.4375 -1.0l2.296875 0q0 0.9375 -0.5 1.71875q-0.5 0.765625 -1.375 1.203125q-0.859375 0.421875 -1.921875 0.421875q-1.953125 0 -3.09375 -1.25q-1.125 -1.25 -1.125 -3.453125l0 -0.15625q0 -2.109375 1.125 -3.375q1.125 -1.265625 3.078125 -1.265625q1.71875 0 2.75 0.984375q1.046875 0.96875 1.0625 2.59375l-2.296875 0q-0.015625 -0.703125 -0.4375 -1.140625q-0.421875 -0.453125 -1.109375 -0.453125q-0.859375 0 -1.296875 0.625q-0.4375 0.625 -0.4375 2.015625l0 0.25q0 1.421875 0.421875 2.046875q0.4375 0.609375 1.328125 0.609375zm8.145721 -9.609375l0 2.25l1.578125 0l0 1.796875l-1.578125 0l0 4.5625q0 0.515625 0.1875 0.734375q0.203125 0.21875 0.765625 0.21875q0.40625 0 0.71875 -0.0625l0 1.859375q-0.71875 0.21875 -1.484375 0.21875q-2.578125 0 -2.625 -2.59375l0 -4.9375l-1.34375 0l0 -1.796875l1.34375 0l0 -2.25l2.4375 0zm2.3042297 6.75q0 -1.375 0.515625 -2.4375q0.53125 -1.0625 1.515625 -1.640625q0.984375 -0.59375 2.28125 -0.59375q1.859375 0 3.03125 1.140625q1.171875 1.125 1.3125 3.078125l0.015625 0.625q0 2.109375 -1.1875 3.390625q-1.171875 1.265625 -3.15625 1.265625q-1.96875 0 -3.15625 -1.265625q-1.171875 -1.28125 -1.171875 -3.453125l0 -0.109375zm2.4375 0.171875q0 1.296875 0.484375 2.0q0.5 0.6875 1.421875 0.6875q0.875 0 1.375 -0.6875q0.5 -0.6875 0.5 -2.171875q0 -1.28125 -0.5 -1.984375q-0.5 -0.703125 -1.40625 -0.703125q-0.890625 0 -1.390625 0.703125q-0.484375 0.6875 -0.484375 2.15625zm12.875961 -2.375q-0.5 -0.0625 -0.875 -0.0625q-1.390625 0 -1.8125 0.9375l0 5.984375l-2.453125 0l0 -9.15625l2.3125 0l0.0625 1.09375q0.734375 -1.265625 2.046875 -1.265625q0.40625 0 0.765625 0.109375l-0.046875 2.359375zm4.7539673 3.40625l1.6875 -5.703125l2.625 0l-3.6875 10.578125l-0.203125 0.484375q-0.8125 1.796875 -2.703125 1.796875q-0.53125 0 -1.078125 -0.171875l0 -1.84375l0.375 0q0.6875 0 1.03125 -0.21875q0.34375 -0.203125 0.53125 -0.6875l0.296875 -0.75l-3.203125 -9.1875l2.625 0l1.703125 5.703125z" fill-rule="nonzero"/><path fill="#d0e0e3" d="m437.66666 87.90026l171.6063 0l0 -16.370079l32.740173 32.740158l-32.740173 32.740158l0 -16.370079l-171.6063 0z" fill-rule="evenodd"/><path stroke="#000000" stroke-width="2.0" stroke-linejoin="round" stroke-linecap="butt" d="m437.66666 87.90026l171.6063 0l0 -16.370079l32.740173 32.740158l-32.740173 32.740158l0 -16.370079l-171.6063 0z" fill-rule="evenodd"/><path fill="#000000" d="m501.1715 103.31659q0.234375 0.296875 0.328125 0.625q0.109375 0.328125 0.109375 0.671875q0 0.71875 -0.25 1.265625q-0.25 0.546875 -0.703125 0.921875q-0.453125 0.375 -1.09375 0.5625q-0.625 0.1875 -1.390625 0.1875q-0.4375 0 -0.828125 -0.078125q-0.375 -0.09375 -0.578125 -0.21875q-0.140625 0.140625 -0.25 0.3125q-0.09375 0.171875 -0.09375 0.40625q0 0.125 0.0625 0.265625q0.078125 0.125 0.203125 0.234375q0.140625 0.109375 0.3125 0.1875q0.1875 0.0625 0.40625 0.0625l2.046875 0.078125q0.6875 0.015625 1.234375 0.171875q0.5625 0.15625 0.953125 0.453125q0.40625 0.28125 0.609375 0.703125q0.21875 0.40625 0.21875 0.921875q0 0.609375 -0.265625 1.140625q-0.265625 0.53125 -0.8125 0.921875q-0.546875 0.390625 -1.359375 0.609375q-0.8125 0.234375 -1.890625 0.234375q-1.046875 0 -1.796875 -0.171875q-0.734375 -0.15625 -1.21875 -0.453125q-0.484375 -0.296875 -0.71875 -0.703125q-0.21875 -0.40625 -0.21875 -0.90625q0 -0.28125 0.078125 -0.546875q0.078125 -0.25 0.21875 -0.484375q0.15625 -0.234375 0.390625 -0.453125q0.234375 -0.21875 0.546875 -0.4375q-0.421875 -0.234375 -0.640625 -0.609375q-0.203125 -0.375 -0.203125 -0.796875q0 -0.28125 0.0625 -0.53125q0.078125 -0.25 0.203125 -0.46875q0.125 -0.234375 0.28125 -0.453125q0.171875 -0.21875 0.34375 -0.421875q-0.3125 -0.3125 -0.53125 -0.75q-0.203125 -0.4375 -0.203125 -1.109375q0 -0.71875 0.25 -1.28125q0.265625 -0.5625 0.71875 -0.953125q0.46875 -0.390625 1.09375 -0.578125q0.640625 -0.203125 1.375 -0.203125q0.390625 0 0.734375 0.046875q0.359375 0.03125 0.640625 0.125l2.984375 0l0 1.5l-1.359375 0zm-4.859375 8.234375q0 0.5 0.5 0.734375q0.5 0.234375 1.40625 0.234375q0.59375 0 0.984375 -0.109375q0.40625 -0.109375 0.65625 -0.28125q0.265625 -0.171875 0.375 -0.421875q0.109375 -0.234375 0.109375 -0.484375q0 -0.234375 -0.109375 -0.390625q-0.109375 -0.15625 -0.296875 -0.265625q-0.1875 -0.09375 -0.453125 -0.15625q-0.25 -0.046875 -0.5625 -0.0625l-1.828125 -0.03125q-0.234375 0.15625 -0.390625 0.3125q-0.15625 0.15625 -0.25 0.296875q-0.09375 0.15625 -0.125 0.296875q-0.015625 0.15625 -0.015625 0.328125zm0.34375 -6.890625q0 0.6875 0.390625 1.09375q0.40625 0.390625 1.125 0.390625q0.390625 0 0.671875 -0.125q0.28125 -0.125 0.46875 -0.328125q0.1875 -0.21875 0.28125 -0.5q0.09375 -0.28125 0.09375 -0.578125q0 -0.71875 -0.40625 -1.125q-0.40625 -0.40625 -1.125 -0.40625q-0.375 0 -0.671875 0.125q-0.28125 0.125 -0.46875 0.34375q-0.171875 0.21875 -0.265625 0.515625q-0.09375 0.28125 -0.09375 0.59375zm12.6521 -5.203125q0 0.28125 -0.109375 0.53125q-0.09375 0.25 -0.28125 0.4375q-0.171875 0.171875 -0.421875 0.28125q-0.25 0.09375 -0.53125 0.09375q-0.28125 0 -0.53125 -0.09375q-0.25 -0.109375 -0.4375 -0.28125q-0.1875 -0.1875 -0.296875 -0.4375q-0.09375 -0.25 -0.09375 -0.53125q0 -0.28125 0.09375 -0.515625q0.109375 -0.25 0.296875 -0.4375q0.1875 -0.1875 0.4375 -0.28125q0.25 -0.109375 0.53125 -0.109375q0.28125 0 0.53125 0.109375q0.25 0.09375 0.421875 0.28125q0.1875 0.1875 0.28125 0.4375q0.109375 0.234375 0.109375 0.515625zm-2.28125 3.96875l-2.4375 0l0 -1.609375l4.546875 0l0 6.984375l2.484375 0l0 1.609375l-7.3125 0l0 -1.609375l2.71875 0l0 -5.375zm13.8396 6.90625q-0.5625 0.125 -1.125 0.1875q-0.5625 0.078125 -1.078125 0.078125q-0.84375 0 -1.453125 -0.171875q-0.609375 -0.171875 -1.015625 -0.53125q-0.40625 -0.375 -0.59375 -0.9375q-0.1875 -0.5625 -0.1875 -1.34375l0 -4.1875l-2.3125 0l0 -1.609375l2.3125 0l0 -2.203125l2.109375 -0.546875l0 2.75l3.34375 0l0 1.609375l-3.34375 0l0 4.046875q0 0.734375 0.328125 1.109375q0.34375 0.375 1.140625 0.375q0.515625 0 1.0 -0.078125q0.484375 -0.09375 0.875 -0.203125l0 1.65625zm19.694763 -4.375q0 1.1875 -0.34375 2.046875q-0.328125 0.859375 -0.921875 1.4375q-0.59375 0.578125 -1.40625 0.859375q-0.8125 0.265625 -1.765625 0.265625q-0.328125 0 -0.65625 -0.046875q-0.3125 -0.046875 -0.578125 -0.109375l0 3.359375l-2.0625 0l0 -11.953125l1.796875 0l0.046875 1.265625q0.265625 -0.328125 0.546875 -0.59375q0.28125 -0.28125 0.609375 -0.46875q0.328125 -0.1875 0.703125 -0.28125q0.390625 -0.109375 0.859375 -0.109375q0.765625 0 1.359375 0.3125q0.59375 0.296875 0.984375 0.859375q0.40625 0.5625 0.609375 1.359375q0.21875 0.796875 0.21875 1.796875zm-2.15625 0.09375q0 -0.71875 -0.109375 -1.21875q-0.09375 -0.5 -0.296875 -0.8125q-0.1875 -0.328125 -0.46875 -0.46875q-0.265625 -0.15625 -0.625 -0.15625q-0.515625 0 -1.0 0.421875q-0.46875 0.421875 -1.015625 1.15625l0 3.75q0.25 0.09375 0.609375 0.15625q0.359375 0.0625 0.734375 0.0625q0.484375 0 0.890625 -0.203125q0.40625 -0.203125 0.6875 -0.578125q0.28125 -0.375 0.4375 -0.90625q0.15625 -0.546875 0.15625 -1.203125zm5.9958496 -4.234375l0 5.59375q0 0.703125 0.265625 1.0625q0.265625 0.359375 0.796875 0.359375q0.515625 0 0.984375 -0.421875q0.484375 -0.421875 1.015625 -1.15625l0 -5.4375l2.0625 0l0 8.59375l-1.78125 0l-0.046875 -1.265625q-0.265625 0.328125 -0.546875 0.609375q-0.28125 0.265625 -0.609375 0.453125q-0.328125 0.1875 -0.71875 0.28125q-0.375 0.109375 -0.84375 0.109375q-0.65625 0 -1.15625 -0.203125q-0.484375 -0.21875 -0.828125 -0.609375q-0.328125 -0.40625 -0.5 -0.953125q-0.15625 -0.5625 -0.15625 -1.25l0 -5.765625l2.0625 0zm14.573975 6.0625q0 0.734375 -0.328125 1.265625q-0.328125 0.515625 -0.859375 0.84375q-0.53125 0.328125 -1.21875 0.46875q-0.6875 0.140625 -1.390625 0.140625q-0.953125 0 -1.71875 -0.09375q-0.75 -0.078125 -1.4375 -0.25l0 -1.859375q0.796875 0.328125 1.59375 0.484375q0.796875 0.140625 1.5 0.140625q0.8125 0 1.203125 -0.25q0.40625 -0.265625 0.40625 -0.671875q0 -0.203125 -0.09375 -0.359375q-0.078125 -0.15625 -0.3125 -0.296875q-0.234375 -0.15625 -0.65625 -0.3125q-0.421875 -0.15625 -1.109375 -0.359375q-0.625 -0.171875 -1.109375 -0.390625q-0.46875 -0.234375 -0.78125 -0.53125q-0.3125 -0.3125 -0.484375 -0.703125q-0.15625 -0.40625 -0.15625 -0.953125q0 -0.53125 0.234375 -0.984375q0.25 -0.46875 0.71875 -0.8125q0.46875 -0.359375 1.171875 -0.5625q0.703125 -0.203125 1.640625 -0.203125q0.8125 0 1.4375 0.09375q0.625 0.078125 1.109375 0.171875l0 1.6875q-0.734375 -0.234375 -1.390625 -0.328125q-0.640625 -0.109375 -1.28125 -0.109375q-0.625 0 -1.015625 0.234375q-0.390625 0.234375 -0.390625 0.640625q0 0.1875 0.078125 0.34375q0.078125 0.15625 0.296875 0.296875q0.234375 0.140625 0.625 0.296875q0.40625 0.15625 1.078125 0.34375q0.734375 0.203125 1.234375 0.453125q0.515625 0.234375 0.828125 0.546875q0.3125 0.296875 0.4375 0.6875q0.140625 0.390625 0.140625 0.890625zm7.5582886 2.53125l0 -5.59375q0 -1.421875 -1.046875 -1.421875q-0.515625 0 -1.0 0.421875q-0.46875 0.421875 -1.015625 1.15625l0 5.4375l-2.0625 0l0 -11.953125l2.0625 0l0 2.9375l-0.09375 1.5625q0.265625 -0.3125 0.53125 -0.5625q0.265625 -0.25 0.578125 -0.421875q0.3125 -0.171875 0.671875 -0.25q0.375 -0.09375 0.8125 -0.09375q0.65625 0 1.140625 0.21875q0.5 0.21875 0.828125 0.609375q0.328125 0.390625 0.5 0.953125q0.171875 0.546875 0.171875 1.234375l0 5.765625l-2.078125 0z" fill-rule="nonzero"/><path fill="#d0e0e3" d="m643.52496 210.85957l-171.60632 0l0 -16.370071l-32.740173 32.740158l32.740173 32.740158l0 -16.370087l171.60632 0z" fill-rule="evenodd"/><path stroke="#000000" stroke-width="2.0" stroke-linejoin="round" stroke-linecap="butt" d="m643.52496 210.85957l-171.60632 0l0 -16.370071l-32.740173 32.740158l32.740173 32.740158l0 -16.370087l171.60632 0z" fill-rule="evenodd"/><path fill="#000000" d="m519.0534 226.27591q0.234375 0.296875 0.328125 0.625q0.109375 0.328125 0.109375 0.671875q0 0.71875 -0.25 1.265625q-0.25 0.546875 -0.703125 0.921875q-0.453125 0.375 -1.09375 0.5625q-0.625 0.1875 -1.390625 0.1875q-0.4375 0 -0.828125 -0.078125q-0.375 -0.09375 -0.578125 -0.21875q-0.140625 0.140625 -0.25 0.3125q-0.09375 0.171875 -0.09375 0.40625q0 0.125 0.0625 0.265625q0.078125 0.125 0.203125 0.234375q0.140625 0.109375 0.3125 0.1875q0.1875 0.0625 0.40625 0.0625l2.046875 0.078125q0.6875 0.015625 1.234375 0.171875q0.5625 0.15625 0.953125 0.453125q0.40625 0.28125 0.609375 0.703125q0.21875 0.40625 0.21875 0.921875q0 0.609375 -0.265625 1.140625q-0.265625 0.53125 -0.8125 0.921875q-0.546875 0.390625 -1.359375 0.609375q-0.8125 0.234375 -1.890625 0.234375q-1.046875 0 -1.796875 -0.171875q-0.734375 -0.15625 -1.21875 -0.453125q-0.484375 -0.296875 -0.71875 -0.703125q-0.21875 -0.40625 -0.21875 -0.90625q0 -0.28125 0.078125 -0.546875q0.078125 -0.25 0.21875 -0.484375q0.15625 -0.234375 0.390625 -0.453125q0.234375 -0.21875 0.546875 -0.4375q-0.421875 -0.234375 -0.640625 -0.609375q-0.203125 -0.375 -0.203125 -0.796875q0 -0.28125 0.0625 -0.53125q0.078125 -0.25 0.203125 -0.46875q0.125 -0.234375 0.28125 -0.453125q0.171875 -0.21875 0.34375 -0.421875q-0.3125 -0.3125 -0.53125 -0.75q-0.203125 -0.4375 -0.203125 -1.109375q0 -0.71875 0.25 -1.28125q0.265625 -0.5625 0.71875 -0.953125q0.46875 -0.390625 1.09375 -0.578125q0.640625 -0.203125 1.375 -0.203125q0.390625 0 0.734375 0.046875q0.359375 0.03125 0.640625 0.125l2.984375 0l0 1.5l-1.359375 0zm-4.859375 8.234375q0 0.5 0.5 0.734375q0.5 0.234375 1.40625 0.234375q0.59375 0 0.984375 -0.109375q0.40625 -0.109375 0.65625 -0.28125q0.265625 -0.171875 0.375 -0.421875q0.109375 -0.234375 0.109375 -0.484375q0 -0.234375 -0.109375 -0.390625q-0.109375 -0.15625 -0.296875 -0.265625q-0.1875 -0.09375 -0.453125 -0.15625q-0.25 -0.046875 -0.5625 -0.0625l-1.828125 -0.03125q-0.234375 0.15625 -0.390625 0.3125q-0.15625 0.15625 -0.25 0.296875q-0.09375 0.15625 -0.125 0.296875q-0.015625 0.15625 -0.015625 0.328125zm0.34375 -6.890625q0 0.6875 0.390625 1.09375q0.40625 0.390625 1.125 0.390625q0.390625 0 0.671875 -0.125q0.28125 -0.125 0.46875 -0.328125q0.1875 -0.21875 0.28125 -0.5q0.09375 -0.28125 0.09375 -0.578125q0 -0.71875 -0.40625 -1.125q-0.40625 -0.40625 -1.125 -0.40625q-0.375 0 -0.671875 0.125q-0.28125 0.125 -0.46875 0.34375q-0.171875 0.21875 -0.265625 0.515625q-0.09375 0.28125 -0.09375 0.59375zm12.6521 -5.203125q0 0.28125 -0.109375 0.53125q-0.09375 0.25 -0.28125 0.4375q-0.171875 0.171875 -0.421875 0.28125q-0.25 0.09375 -0.53125 0.09375q-0.28125 0 -0.53125 -0.09375q-0.25 -0.109375 -0.4375 -0.28125q-0.1875 -0.1875 -0.296875 -0.4375q-0.09375 -0.25 -0.09375 -0.53125q0 -0.28125 0.09375 -0.515625q0.109375 -0.25 0.296875 -0.4375q0.1875 -0.1875 0.4375 -0.28125q0.25 -0.109375 0.53125 -0.109375q0.28125 0 0.53125 0.109375q0.25 0.09375 0.421875 0.28125q0.1875 0.1875 0.28125 0.4375q0.109375 0.234375 0.109375 0.515625zm-2.28125 3.96875l-2.4375 0l0 -1.609375l4.546875 0l0 6.984375l2.484375 0l0 1.609375l-7.3125 0l0 -1.609375l2.71875 0l0 -5.375zm13.8396 6.90625q-0.5625 0.125 -1.125 0.1875q-0.5625 0.078125 -1.078125 0.078125q-0.84375 0 -1.453125 -0.171875q-0.609375 -0.171875 -1.015625 -0.53125q-0.40625 -0.375 -0.59375 -0.9375q-0.1875 -0.5625 -0.1875 -1.34375l0 -4.1875l-2.3125 0l0 -1.609375l2.3125 0l0 -2.203125l2.109375 -0.546875l0 2.75l3.34375 0l0 1.609375l-3.34375 0l0 4.046875q0 0.734375 0.328125 1.109375q0.34375 0.375 1.140625 0.375q0.515625 0 1.0 -0.078125q0.484375 -0.09375 0.875 -0.203125l0 1.65625zm19.694763 -4.375q0 1.1875 -0.34375 2.046875q-0.328125 0.859375 -0.921875 1.4375q-0.59375 0.578125 -1.40625 0.859375q-0.8125 0.265625 -1.765625 0.265625q-0.328125 0 -0.65625 -0.046875q-0.3125 -0.046875 -0.578125 -0.109375l0 3.359375l-2.0625 0l0 -11.953125l1.796875 0l0.046875 1.265625q0.265625 -0.328125 0.546875 -0.59375q0.28125 -0.28125 0.609375 -0.46875q0.328125 -0.1875 0.703125 -0.28125q0.390625 -0.109375 0.859375 -0.109375q0.765625 0 1.359375 0.3125q0.59375 0.296875 0.984375 0.859375q0.40625 0.5625 0.609375 1.359375q0.21875 0.796875 0.21875 1.796875zm-2.15625 0.09375q0 -0.71875 -0.109375 -1.21875q-0.09375 -0.5 -0.296875 -0.8125q-0.1875 -0.328125 -0.46875 -0.46875q-0.265625 -0.15625 -0.625 -0.15625q-0.515625 0 -1.0 0.421875q-0.46875 0.421875 -1.015625 1.15625l0 3.75q0.25 0.09375 0.609375 0.15625q0.359375 0.0625 0.734375 0.0625q0.484375 0 0.890625 -0.203125q0.40625 -0.203125 0.6875 -0.578125q0.28125 -0.375 0.4375 -0.90625q0.15625 -0.546875 0.15625 -1.203125zm5.9958496 -4.234375l0 5.59375q0 0.703125 0.265625 1.0625q0.265625 0.359375 0.796875 0.359375q0.515625 0 0.984375 -0.421875q0.484375 -0.421875 1.015625 -1.15625l0 -5.4375l2.0625 0l0 8.59375l-1.78125 0l-0.046875 -1.265625q-0.265625 0.328125 -0.546875 0.609375q-0.28125 0.265625 -0.609375 0.453125q-0.328125 0.1875 -0.71875 0.28125q-0.375 0.109375 -0.84375 0.109375q-0.65625 0 -1.15625 -0.203125q-0.484375 -0.21875 -0.828125 -0.609375q-0.328125 -0.40625 -0.5 -0.953125q-0.15625 -0.5625 -0.15625 -1.25l0 -5.765625l2.0625 0zm10.261475 -1.75l-2.4375 0l0 -1.609375l4.546875 0l0 10.34375l2.484375 0l0 1.609375l-7.3125 0l0 -1.609375l2.71875 0l0 -8.734375zm9.527039 0l-2.4375 0l0 -1.609375l4.546875 0l0 10.34375l2.484375 0l0 1.609375l-7.3125 0l0 -1.609375l2.71875 0l0 -8.734375z" fill-rule="nonzero"/><path fill="#d9d2e9" d="m370.61023 319.06564l0 0c0 -0.89294434 0.72387695 -1.6168213 1.6168518 -1.6168213l132.98679 0c0.428833 0 0.8400574 0.17034912 1.14328 0.47354126c0.30322266 0.30322266 0.47357178 0.71447754 0.47357178 1.14328l0 6.4671326c0 0.89294434 -0.72387695 1.6168213 -1.6168518 1.6168213l-132.98679 0c-0.89297485 0 -1.6168518 -0.72387695 -1.6168518 -1.6168213z" fill-rule="evenodd"/><path stroke="#000000" stroke-width="1.0" stroke-linejoin="round" stroke-linecap="butt" d="m370.61023 319.06564l0 0c0 -0.89294434 0.72387695 -1.6168213 1.6168518 -1.6168213l132.98679 0c0.428833 0 0.8400574 0.17034912 1.14328 0.47354126c0.30322266 0.30322266 0.47357178 0.71447754 0.47357178 1.14328l0 6.4671326c0 0.89294434 -0.72387695 1.6168213 -1.6168518 1.6168213l-132.98679 0c-0.89297485 0 -1.6168518 -0.72387695 -1.6168518 -1.6168213z" fill-rule="evenodd"/><path fill="#f4cccc" d="m574.3648 319.06564l0 0c0 -0.89294434 0.72387695 -1.6168213 1.6168823 -1.6168213l132.98676 0c0.428833 0 0.8400879 0.17034912 1.1433105 0.47354126c0.30322266 0.30322266 0.47357178 0.71447754 0.47357178 1.14328l0 6.4671326c0 0.89294434 -0.72387695 1.6168213 -1.6168823 1.6168213l-132.98676 0c-0.8930054 0 -1.6168823 -0.72387695 -1.6168823 -1.6168213z" fill-rule="evenodd"/><path stroke="#000000" stroke-width="1.0" stroke-linejoin="round" stroke-linecap="butt" d="m574.3648 319.06564l0 0c0 -0.89294434 0.72387695 -1.6168213 1.6168823 -1.6168213l132.98676 0c0.428833 0 0.8400879 0.17034912 1.1433105 0.47354126c0.30322266 0.30322266 0.47357178 0.71447754 0.47357178 1.14328l0 6.4671326c0 0.89294434 -0.72387695 1.6168213 -1.6168823 1.6168213l-132.98676 0c-0.8930054 0 -1.6168823 -0.72387695 -1.6168823 -1.6168213z" fill-rule="evenodd"/><path fill="#d9ead3" d="m190.65092 319.06564l0 0c0 -0.89294434 0.72387695 -1.6168213 1.6168213 -1.6168213l132.9868 0c0.428833 0 0.8400574 0.17034912 1.14328 0.47354126c0.30322266 0.30322266 0.47357178 0.71447754 0.47357178 1.14328l0 6.4671326c0 0.89294434 -0.72387695 1.6168213 -1.6168518 1.6168213l-132.9868 0c-0.89294434 0 -1.6168213 -0.72387695 -1.6168213 -1.6168213z" fill-rule="evenodd"/><path stroke="#000000" stroke-width="1.0" stroke-linejoin="round" stroke-linecap="butt" d="m190.65092 319.06564l0 0c0 -0.89294434 0.72387695 -1.6168213 1.6168213 -1.6168213l132.9868 0c0.428833 0 0.8400574 0.17034912 1.14328 0.47354126c0.30322266 0.30322266 0.47357178 0.71447754 0.47357178 1.14328l0 6.4671326c0 0.89294434 -0.72387695 1.6168213 -1.6168518 1.6168213l-132.9868 0c-0.89294434 0 -1.6168213 -0.72387695 -1.6168213 -1.6168213z" fill-rule="evenodd"/><path fill="#fce5cd" d="m9.414699 319.06564l0 0c0 -0.89294434 0.72387886 -1.6168213 1.6168299 -1.6168213l132.98682 0c0.4288025 0 0.8400574 0.17034912 1.1432648 0.47354126c0.30322266 0.30322266 0.47357178 0.71447754 0.47357178 1.14328l0 6.4671326c0 0.89294434 -0.7238922 1.6168213 -1.6168365 1.6168213l-132.98682 0c-0.892951 0 -1.6168299 -0.72387695 -1.6168299 -1.6168213z" fill-rule="evenodd"/><path stroke="#000000" stroke-width="1.0" stroke-linejoin="round" stroke-linecap="butt" d="m9.414699 319.06564l0 0c0 -0.89294434 0.72387886 -1.6168213 1.6168299 -1.6168213l132.98682 0c0.4288025 0 0.8400574 0.17034912 1.1432648 0.47354126c0.30322266 0.30322266 0.47357178 0.71447754 0.47357178 1.14328l0 6.4671326c0 0.89294434 -0.7238922 1.6168213 -1.6168365 1.6168213l-132.98682 0c-0.892951 0 -1.6168299 -0.72387695 -1.6168299 -1.6168213z" fill-rule="evenodd"/><path fill="#000000" fill-opacity="0.0" d="m77.52493 49.09974l0 268.34647" fill-rule="evenodd"/><path stroke="#000000" stroke-width="1.0" stroke-linejoin="round" stroke-linecap="butt" d="m77.52493 49.09974l0 268.34647" fill-rule="evenodd"/><path fill="#000000" fill-opacity="0.0" d="m258.12317 49.09974l0.62991333 268.34647" fill-rule="evenodd"/><path stroke="#000000" stroke-width="1.0" stroke-linejoin="round" stroke-linecap="butt" d="m258.12317 49.09974l0.62991333 268.34647" fill-rule="evenodd"/><path fill="#000000" fill-opacity="0.0" d="m438.72177 49.09974l0 268.34647" fill-rule="evenodd"/><path stroke="#000000" stroke-width="1.0" stroke-linejoin="round" stroke-linecap="butt" d="m438.72177 49.09974l0 268.34647" fill-rule="evenodd"/><path fill="#000000" fill-opacity="0.0" d="m642.47504 49.09974l0 268.34647" fill-rule="evenodd"/><path stroke="#000000" stroke-width="1.0" stroke-linejoin="round" stroke-linecap="butt" d="m642.47504 49.09974l0 268.34647" fill-rule="evenodd"/><path fill="#ead1dc" d="m77.950134 87.90026l147.44882 0l0 -16.370079l32.740143 32.740158l-32.740143 32.740158l0 -16.370079l-147.44882 0z" fill-rule="evenodd"/><path stroke="#000000" stroke-width="1.0" stroke-linejoin="round" stroke-linecap="butt" d="m77.950134 87.90026l147.44882 0l0 -16.370079l32.740143 32.740158l-32.740143 32.740158l0 -16.370079l-147.44882 0z" fill-rule="evenodd"/><path fill="#000000" d="m136.11739 103.583466q0.21875 0.265625 0.296875 0.578125q0.09375 0.296875 0.09375 0.609375q0 0.65625 -0.234375 1.171875q-0.21875 0.5 -0.640625 0.84375q-0.421875 0.34375 -1.0 0.53125q-0.578125 0.171875 -1.28125 0.171875q-0.421875 0 -0.78125 -0.078125q-0.34375 -0.09375 -0.515625 -0.203125q-0.140625 0.140625 -0.234375 0.296875q-0.09375 0.15625 -0.09375 0.359375q0 0.125 0.0625 0.25q0.0625 0.125 0.1875 0.234375q0.125 0.09375 0.28125 0.15625q0.171875 0.0625 0.390625 0.0625l1.875 0.078125q0.640625 0.015625 1.140625 0.15625q0.515625 0.140625 0.875 0.40625q0.375 0.265625 0.578125 0.65625q0.203125 0.375 0.203125 0.859375q0 0.5625 -0.25 1.046875q-0.25 0.5 -0.765625 0.859375q-0.5 0.359375 -1.25 0.5625q-0.75 0.21875 -1.734375 0.21875q-0.96875 0 -1.65625 -0.15625q-0.6875 -0.140625 -1.140625 -0.421875q-0.4375 -0.265625 -0.65625 -0.65625q-0.203125 -0.375 -0.203125 -0.828125q0 -0.265625 0.0625 -0.5q0.078125 -0.234375 0.21875 -0.453125q0.140625 -0.21875 0.34375 -0.421875q0.21875 -0.203125 0.515625 -0.40625q-0.390625 -0.21875 -0.59375 -0.5625q-0.1875 -0.34375 -0.1875 -0.734375q0 -0.265625 0.0625 -0.5q0.078125 -0.234375 0.1875 -0.4375q0.109375 -0.21875 0.25 -0.40625q0.15625 -0.203125 0.328125 -0.390625q-0.296875 -0.28125 -0.484375 -0.6875q-0.1875 -0.421875 -0.1875 -1.03125q0 -0.671875 0.234375 -1.1875q0.234375 -0.515625 0.65625 -0.875q0.421875 -0.359375 1.0 -0.53125q0.59375 -0.1875 1.28125 -0.1875q0.34375 0 0.671875 0.03125q0.328125 0.03125 0.59375 0.125l2.75 0l0 1.390625l-1.25 0zm-4.5 7.609375q0 0.453125 0.46875 0.671875q0.46875 0.21875 1.3125 0.21875q0.53125 0 0.90625 -0.109375q0.375 -0.09375 0.609375 -0.265625q0.234375 -0.15625 0.328125 -0.375q0.109375 -0.21875 0.109375 -0.453125q0 -0.203125 -0.109375 -0.359375q-0.09375 -0.140625 -0.265625 -0.234375q-0.171875 -0.09375 -0.421875 -0.15625q-0.234375 -0.046875 -0.515625 -0.0625l-1.6875 -0.03125q-0.21875 0.15625 -0.375 0.296875q-0.140625 0.140625 -0.21875 0.28125q-0.078125 0.140625 -0.109375 0.28125q-0.03125 0.140625 -0.03125 0.296875zm0.328125 -6.375q0 0.625 0.359375 1.0q0.375 0.375 1.046875 0.375q0.34375 0 0.609375 -0.109375q0.265625 -0.125 0.4375 -0.3125q0.171875 -0.203125 0.25 -0.453125q0.09375 -0.265625 0.09375 -0.546875q0 -0.671875 -0.375 -1.03125q-0.375 -0.375 -1.03125 -0.375q-0.359375 0 -0.625 0.125q-0.25 0.109375 -0.421875 0.3125q-0.171875 0.1875 -0.265625 0.453125q-0.078125 0.265625 -0.078125 0.5625zm11.6875 -4.796875q0 0.25 -0.09375 0.484375q-0.09375 0.21875 -0.265625 0.390625q-0.171875 0.171875 -0.40625 0.265625q-0.21875 0.09375 -0.484375 0.09375q-0.265625 0 -0.5 -0.09375q-0.21875 -0.09375 -0.390625 -0.265625q-0.171875 -0.171875 -0.265625 -0.390625q-0.09375 -0.234375 -0.09375 -0.484375q0 -0.265625 0.09375 -0.484375q0.09375 -0.234375 0.265625 -0.40625q0.171875 -0.171875 0.390625 -0.265625q0.234375 -0.09375 0.5 -0.09375q0.265625 0 0.484375 0.09375q0.234375 0.09375 0.40625 0.265625q0.171875 0.171875 0.265625 0.40625q0.09375 0.21875 0.09375 0.484375zm-2.109375 3.65625l-2.25 0l0 -1.484375l4.203125 0l0 6.453125l2.28125 0l0 1.484375l-6.75 0l0 -1.484375l2.515625 0l0 -4.96875zm12.78125 6.375q-0.515625 0.125 -1.046875 0.1875q-0.515625 0.078125 -0.984375 0.078125q-0.78125 0 -1.359375 -0.171875q-0.5625 -0.171875 -0.9375 -0.5q-0.359375 -0.34375 -0.546875 -0.859375q-0.171875 -0.515625 -0.171875 -1.234375l0 -3.875l-2.125 0l0 -1.484375l2.125 0l0 -2.03125l1.953125 -0.515625l0 2.546875l3.09375 0l0 1.484375l-3.09375 0l0 3.734375q0 0.671875 0.3125 1.03125q0.3125 0.34375 1.046875 0.34375q0.46875 0 0.90625 -0.078125q0.453125 -0.078125 0.828125 -0.1875l0 1.53125zm16.015625 0.078125l-0.046875 -1.046875q-0.25 0.265625 -0.53125 0.5q-0.265625 0.21875 -0.59375 0.390625q-0.328125 0.15625 -0.71875 0.25q-0.375 0.09375 -0.84375 0.09375q-0.609375 0 -1.078125 -0.1875q-0.453125 -0.1875 -0.765625 -0.5q-0.3125 -0.328125 -0.46875 -0.78125q-0.15625 -0.453125 -0.15625 -1.0q0 -0.5625 0.234375 -1.03125q0.234375 -0.484375 0.71875 -0.828125q0.5 -0.34375 1.21875 -0.53125q0.734375 -0.203125 1.71875 -0.203125l1.046875 0l0 -0.46875q0 -0.3125 -0.09375 -0.546875q-0.078125 -0.25 -0.28125 -0.421875q-0.1875 -0.171875 -0.5 -0.265625q-0.296875 -0.09375 -0.734375 -0.09375q-0.703125 0 -1.390625 0.15625q-0.6875 0.15625 -1.328125 0.453125l0 -1.53125q0.578125 -0.21875 1.3125 -0.359375q0.75 -0.15625 1.5625 -0.15625q0.875 0 1.5 0.171875q0.640625 0.15625 1.046875 0.5q0.421875 0.328125 0.609375 0.84375q0.203125 0.5 0.203125 1.171875l0 5.421875l-1.640625 0zm-0.265625 -3.515625l-1.171875 0q-0.484375 0 -0.828125 0.09375q-0.328125 0.09375 -0.546875 0.265625q-0.203125 0.15625 -0.296875 0.375q-0.09375 0.21875 -0.09375 0.453125q0 0.484375 0.3125 0.75q0.3125 0.25 0.84375 0.25q0.40625 0 0.828125 -0.28125q0.4375 -0.296875 0.953125 -0.84375l0 -1.0625zm9.078125 3.515625l-0.046875 -1.171875q-0.25 0.296875 -0.515625 0.546875q-0.265625 0.25 -0.578125 0.4375q-0.296875 0.171875 -0.640625 0.265625q-0.34375 0.109375 -0.765625 0.109375q-0.703125 0 -1.25 -0.28125q-0.546875 -0.296875 -0.921875 -0.8125q-0.375 -0.515625 -0.578125 -1.25q-0.1875 -0.75 -0.1875 -1.671875q0 -1.09375 0.3125 -1.890625q0.3125 -0.796875 0.859375 -1.328125q0.546875 -0.53125 1.296875 -0.78125q0.75 -0.25 1.625 -0.25q0.296875 0 0.59375 0.046875q0.3125 0.03125 0.546875 0.09375l0 -3.109375l1.90625 0l0 11.046875l-1.65625 0zm-3.484375 -3.90625q0 0.65625 0.09375 1.125q0.09375 0.453125 0.265625 0.75q0.171875 0.296875 0.421875 0.4375q0.265625 0.140625 0.59375 0.140625q0.484375 0 0.921875 -0.390625q0.4375 -0.390625 0.9375 -1.078125l0 -3.46875q-0.234375 -0.078125 -0.5625 -0.125q-0.328125 -0.0625 -0.671875 -0.0625q-0.453125 0 -0.828125 0.1875q-0.359375 0.1875 -0.625 0.53125q-0.265625 0.34375 -0.40625 0.84375q-0.140625 0.484375 -0.140625 1.109375zm12.28125 3.90625l-0.046875 -1.171875q-0.25 0.296875 -0.515625 0.546875q-0.265625 0.25 -0.578125 0.4375q-0.296875 0.171875 -0.640625 0.265625q-0.34375 0.109375 -0.765625 0.109375q-0.703125 0 -1.25 -0.28125q-0.546875 -0.296875 -0.921875 -0.8125q-0.375 -0.515625 -0.578125 -1.25q-0.1875 -0.75 -0.1875 -1.671875q0 -1.09375 0.3125 -1.890625q0.3125 -0.796875 0.859375 -1.328125q0.546875 -0.53125 1.296875 -0.78125q0.75 -0.25 1.625 -0.25q0.296875 0 0.59375 0.046875q0.3125 0.03125 0.546875 0.09375l0 -3.109375l1.90625 0l0 11.046875l-1.65625 0zm-3.484375 -3.90625q0 0.65625 0.09375 1.125q0.09375 0.453125 0.265625 0.75q0.171875 0.296875 0.421875 0.4375q0.265625 0.140625 0.59375 0.140625q0.484375 0 0.921875 -0.390625q0.4375 -0.390625 0.9375 -1.078125l0 -3.46875q-0.234375 -0.078125 -0.5625 -0.125q-0.328125 -0.0625 -0.671875 -0.0625q-0.453125 0 -0.828125 0.1875q-0.359375 0.1875 -0.625 0.53125q-0.265625 0.34375 -0.40625 0.84375q-0.140625 0.484375 -0.140625 1.109375z" fill-rule="nonzero"/><path fill="#ead1dc" d="m258.1391 210.85957l-147.4488 0l0 -16.370071l-32.740158 32.740158l32.740158 32.740158l0 -16.370087l147.4488 0z" fill-rule="evenodd"/><path stroke="#000000" stroke-width="1.0" stroke-linejoin="round" stroke-linecap="butt" d="m258.1391 210.85957l-147.4488 0l0 -16.370071l-32.740158 32.740158l32.740158 32.740158l0 -16.370087l147.4488 0z" fill-rule="evenodd"/><path fill="#000000" d="m134.89372 226.54279q0.21875 0.265625 0.296875 0.578125q0.09375 0.296875 0.09375 0.609375q0 0.65625 -0.234375 1.171875q-0.21875 0.5 -0.640625 0.84375q-0.421875 0.34375 -1.0 0.53125q-0.578125 0.171875 -1.28125 0.171875q-0.421875 0 -0.78125 -0.078125q-0.34375 -0.09375 -0.515625 -0.203125q-0.140625 0.140625 -0.234375 0.296875q-0.09375 0.15625 -0.09375 0.359375q0 0.125 0.0625 0.25q0.0625 0.125 0.1875 0.234375q0.125 0.09375 0.28125 0.15625q0.171875 0.0625 0.390625 0.0625l1.875 0.078125q0.640625 0.015625 1.140625 0.15625q0.515625 0.140625 0.875 0.40625q0.375 0.265625 0.578125 0.65625q0.203125 0.375 0.203125 0.859375q0 0.5625 -0.25 1.046875q-0.25 0.5 -0.765625 0.859375q-0.5 0.359375 -1.25 0.5625q-0.75 0.21875 -1.734375 0.21875q-0.96875 0 -1.65625 -0.15625q-0.6875 -0.140625 -1.140625 -0.421875q-0.4375 -0.265625 -0.65625 -0.65625q-0.203125 -0.375 -0.203125 -0.828125q0 -0.265625 0.0625 -0.5q0.078125 -0.234375 0.21875 -0.453125q0.140625 -0.21875 0.34375 -0.421875q0.21875 -0.203125 0.515625 -0.40625q-0.390625 -0.21875 -0.59375 -0.5625q-0.1875 -0.34375 -0.1875 -0.734375q0 -0.265625 0.0625 -0.5q0.078125 -0.234375 0.1875 -0.4375q0.109375 -0.21875 0.25 -0.40625q0.15625 -0.203125 0.328125 -0.390625q-0.296875 -0.28125 -0.484375 -0.6875q-0.1875 -0.421875 -0.1875 -1.03125q0 -0.671875 0.234375 -1.1875q0.234375 -0.515625 0.65625 -0.875q0.421875 -0.359375 1.0 -0.53125q0.59375 -0.1875 1.28125 -0.1875q0.34375 0 0.671875 0.03125q0.328125 0.03125 0.59375 0.125l2.75 0l0 1.390625l-1.25 0zm-4.5 7.609375q0 0.453125 0.46875 0.671875q0.46875 0.21875 1.3125 0.21875q0.53125 0 0.90625 -0.109375q0.375 -0.09375 0.609375 -0.265625q0.234375 -0.15625 0.328125 -0.375q0.109375 -0.21875 0.109375 -0.453125q0 -0.203125 -0.109375 -0.359375q-0.09375 -0.140625 -0.265625 -0.234375q-0.171875 -0.09375 -0.421875 -0.15625q-0.234375 -0.046875 -0.515625 -0.0625l-1.6875 -0.03125q-0.21875 0.15625 -0.375 0.296875q-0.140625 0.140625 -0.21875 0.28125q-0.078125 0.140625 -0.109375 0.28125q-0.03125 0.140625 -0.03125 0.296875zm0.328125 -6.375q0 0.625 0.359375 1.0q0.375 0.375 1.046875 0.375q0.34375 0 0.609375 -0.109375q0.265625 -0.125 0.4375 -0.3125q0.171875 -0.203125 0.25 -0.453125q0.09375 -0.265625 0.09375 -0.546875q0 -0.671875 -0.375 -1.03125q-0.375 -0.375 -1.03125 -0.375q-0.359375 0 -0.625 0.125q-0.25 0.109375 -0.421875 0.3125q-0.171875 0.1875 -0.265625 0.453125q-0.078125 0.265625 -0.078125 0.5625zm11.6875 -4.796875q0 0.25 -0.09375 0.484375q-0.09375 0.21875 -0.265625 0.390625q-0.171875 0.171875 -0.40625 0.265625q-0.21875 0.09375 -0.484375 0.09375q-0.265625 0 -0.5 -0.09375q-0.21875 -0.09375 -0.390625 -0.265625q-0.171875 -0.171875 -0.265625 -0.390625q-0.09375 -0.234375 -0.09375 -0.484375q0 -0.265625 0.09375 -0.484375q0.09375 -0.234375 0.265625 -0.40625q0.171875 -0.171875 0.390625 -0.265625q0.234375 -0.09375 0.5 -0.09375q0.265625 0 0.484375 0.09375q0.234375 0.09375 0.40625 0.265625q0.171875 0.171875 0.265625 0.40625q0.09375 0.21875 0.09375 0.484375zm-2.109375 3.65625l-2.25 0l0 -1.484375l4.203125 0l0 6.453125l2.28125 0l0 1.484375l-6.75 0l0 -1.484375l2.515625 0l0 -4.96875zm12.78125 6.375q-0.515625 0.125 -1.046875 0.1875q-0.515625 0.078125 -0.984375 0.078125q-0.78125 0 -1.359375 -0.171875q-0.5625 -0.171875 -0.9375 -0.5q-0.359375 -0.34375 -0.546875 -0.859375q-0.171875 -0.515625 -0.171875 -1.234375l0 -3.875l-2.125 0l0 -1.484375l2.125 0l0 -2.03125l1.953125 -0.515625l0 2.546875l3.09375 0l0 1.484375l-3.09375 0l0 3.734375q0 0.671875 0.3125 1.03125q0.3125 0.34375 1.046875 0.34375q0.46875 0 0.90625 -0.078125q0.453125 -0.078125 0.828125 -0.1875l0 1.53125zm16.15625 -4.78125q0.015625 -0.4375 -0.046875 -0.75q-0.0625 -0.3125 -0.1875 -0.515625q-0.125 -0.203125 -0.3125 -0.296875q-0.1875 -0.09375 -0.4375 -0.09375q-0.421875 0 -0.875 0.34375q-0.4375 0.34375 -0.984375 1.140625l0 5.03125l-1.953125 0l0 -7.9375l1.734375 0l0.0625 1.15625q0.203125 -0.3125 0.4375 -0.546875q0.25 -0.25 0.546875 -0.421875q0.3125 -0.171875 0.671875 -0.265625q0.375 -0.09375 0.8125 -0.09375q0.59375 0 1.0625 0.203125q0.46875 0.203125 0.78125 0.609375q0.3125 0.40625 0.46875 1.03125q0.15625 0.609375 0.125 1.40625l-1.90625 0zm10.59375 0.28125q0 0.1875 -0.015625 0.5q0 0.3125 -0.03125 0.59375l-5.21875 0q0 0.515625 0.15625 0.921875q0.171875 0.390625 0.453125 0.671875q0.296875 0.265625 0.703125 0.40625q0.421875 0.140625 0.921875 0.140625q0.578125 0 1.234375 -0.09375q0.65625 -0.09375 1.375 -0.296875l0 1.515625q-0.3125 0.09375 -0.671875 0.171875q-0.359375 0.0625 -0.734375 0.109375q-0.375 0.0625 -0.765625 0.09375q-0.375 0.03125 -0.734375 0.03125q-0.90625 0 -1.625 -0.265625q-0.71875 -0.265625 -1.21875 -0.765625q-0.5 -0.5 -0.765625 -1.234375q-0.265625 -0.75 -0.265625 -1.734375q0 -0.96875 0.265625 -1.75q0.265625 -0.796875 0.75 -1.359375q0.484375 -0.578125 1.171875 -0.875q0.703125 -0.3125 1.546875 -0.3125q0.84375 0 1.484375 0.265625q0.65625 0.25 1.09375 0.71875q0.4375 0.46875 0.65625 1.125q0.234375 0.640625 0.234375 1.421875zm-1.9375 -0.28125q0.015625 -0.46875 -0.109375 -0.8125q-0.125 -0.34375 -0.34375 -0.5625q-0.21875 -0.234375 -0.5 -0.34375q-0.28125 -0.109375 -0.609375 -0.109375q-0.71875 0 -1.1875 0.484375q-0.453125 0.46875 -0.546875 1.34375l3.296875 0zm10.375 2.515625q0 0.6875 -0.3125 1.171875q-0.296875 0.46875 -0.796875 0.78125q-0.484375 0.296875 -1.125 0.4375q-0.625 0.140625 -1.28125 0.140625q-0.875 0 -1.578125 -0.09375q-0.703125 -0.078125 -1.328125 -0.234375l0 -1.71875q0.734375 0.296875 1.46875 0.4375q0.734375 0.140625 1.375 0.140625q0.75 0 1.125 -0.234375q0.375 -0.25 0.375 -0.625q0 -0.1875 -0.078125 -0.328125q-0.078125 -0.15625 -0.296875 -0.28125q-0.21875 -0.140625 -0.609375 -0.28125q-0.390625 -0.15625 -1.015625 -0.328125q-0.59375 -0.171875 -1.03125 -0.375q-0.4375 -0.203125 -0.734375 -0.484375q-0.28125 -0.28125 -0.4375 -0.65625q-0.140625 -0.375 -0.140625 -0.875q0 -0.484375 0.21875 -0.90625q0.21875 -0.4375 0.65625 -0.75q0.4375 -0.328125 1.078125 -0.515625q0.65625 -0.1875 1.515625 -0.1875q0.75 0 1.328125 0.078125q0.578125 0.078125 1.03125 0.171875l0 1.546875q-0.6875 -0.21875 -1.28125 -0.296875q-0.59375 -0.09375 -1.1875 -0.09375q-0.578125 0 -0.9375 0.21875q-0.359375 0.203125 -0.359375 0.578125q0 0.171875 0.0625 0.3125q0.078125 0.140625 0.28125 0.28125q0.21875 0.125 0.578125 0.28125q0.375 0.140625 0.984375 0.3125q0.6875 0.1875 1.15625 0.421875q0.46875 0.21875 0.75 0.5q0.296875 0.28125 0.421875 0.640625q0.125 0.359375 0.125 0.8125zm8.796875 2.265625q-0.515625 0.125 -1.046875 0.1875q-0.515625 0.078125 -0.984375 0.078125q-0.78125 0 -1.359375 -0.171875q-0.5625 -0.171875 -0.9375 -0.5q-0.359375 -0.34375 -0.546875 -0.859375q-0.171875 -0.515625 -0.171875 -1.234375l0 -3.875l-2.125 0l0 -1.484375l2.125 0l0 -2.03125l1.953125 -0.515625l0 2.546875l3.09375 0l0 1.484375l-3.09375 0l0 3.734375q0 0.671875 0.3125 1.03125q0.3125 0.34375 1.046875 0.34375q0.46875 0 0.90625 -0.078125q0.453125 -0.078125 0.828125 -0.1875l0 1.53125zm9.390625 -3.953125q0 0.9375 -0.265625 1.71875q-0.265625 0.765625 -0.765625 1.328125q-0.5 0.546875 -1.234375 0.859375q-0.71875 0.3125 -1.640625 0.3125q-0.890625 0 -1.59375 -0.265625q-0.6875 -0.265625 -1.171875 -0.765625q-0.484375 -0.515625 -0.75 -1.28125q-0.25 -0.78125 -0.25 -1.796875q0 -0.953125 0.265625 -1.71875q0.28125 -0.78125 0.78125 -1.328125q0.5 -0.546875 1.21875 -0.84375q0.734375 -0.296875 1.65625 -0.296875q0.890625 0 1.578125 0.265625q0.703125 0.25 1.1875 0.765625q0.484375 0.515625 0.734375 1.28125q0.25 0.765625 0.25 1.765625zm-1.984375 0.046875q0 -1.234375 -0.46875 -1.859375q-0.453125 -0.625 -1.359375 -0.625q-0.5 0 -0.859375 0.203125q-0.34375 0.1875 -0.578125 0.53125q-0.21875 0.34375 -0.328125 0.796875q-0.109375 0.453125 -0.109375 0.96875q0 1.234375 0.5 1.875q0.5 0.625 1.375 0.625q0.46875 0 0.8125 -0.1875q0.359375 -0.203125 0.578125 -0.53125q0.21875 -0.34375 0.328125 -0.796875q0.109375 -0.46875 0.109375 -1.0zm8.75 -0.875q0.015625 -0.4375 -0.046875 -0.75q-0.0625 -0.3125 -0.1875 -0.515625q-0.125 -0.203125 -0.3125 -0.296875q-0.1875 -0.09375 -0.4375 -0.09375q-0.421875 0 -0.875 0.34375q-0.4375 0.34375 -0.984375 1.140625l0 5.03125l-1.953125 0l0 -7.9375l1.734375 0l0.0625 1.15625q0.203125 -0.3125 0.4375 -0.546875q0.25 -0.25 0.546875 -0.421875q0.3125 -0.171875 0.671875 -0.265625q0.375 -0.09375 0.8125 -0.09375q0.59375 0 1.0625 0.203125q0.46875 0.203125 0.78125 0.609375q0.3125 0.40625 0.46875 1.03125q0.15625 0.609375 0.125 1.40625l-1.90625 0zm10.59375 0.28125q0 0.1875 -0.015625 0.5q0 0.3125 -0.03125 0.59375l-5.21875 0q0 0.515625 0.15625 0.921875q0.171875 0.390625 0.453125 0.671875q0.296875 0.265625 0.703125 0.40625q0.421875 0.140625 0.921875 0.140625q0.578125 0 1.234375 -0.09375q0.65625 -0.09375 1.375 -0.296875l0 1.515625q-0.3125 0.09375 -0.671875 0.171875q-0.359375 0.0625 -0.734375 0.109375q-0.375 0.0625 -0.765625 0.09375q-0.375 0.03125 -0.734375 0.03125q-0.90625 0 -1.625 -0.265625q-0.71875 -0.265625 -1.21875 -0.765625q-0.5 -0.5 -0.765625 -1.234375q-0.265625 -0.75 -0.265625 -1.734375q0 -0.96875 0.265625 -1.75q0.265625 -0.796875 0.75 -1.359375q0.484375 -0.578125 1.171875 -0.875q0.703125 -0.3125 1.546875 -0.3125q0.84375 0 1.484375 0.265625q0.65625 0.25 1.09375 0.71875q0.4375 0.46875 0.65625 1.125q0.234375 0.640625 0.234375 1.421875zm-1.9375 -0.28125q0.015625 -0.46875 -0.109375 -0.8125q-0.125 -0.34375 -0.34375 -0.5625q-0.21875 -0.234375 -0.5 -0.34375q-0.28125 -0.109375 -0.609375 -0.109375q-0.71875 0 -1.1875 0.484375q-0.453125 0.46875 -0.546875 1.34375l3.296875 0z" fill-rule="nonzero"/><path fill="#e6b8af" d="m258.5643 136.27296l123.7323 0l0 -28.228348l56.456696 56.456696l-56.456696 56.456696l0 -28.228348l-123.7323 0z" fill-rule="evenodd"/><path stroke="#000000" stroke-width="1.0" stroke-linejoin="round" stroke-linecap="butt" d="m258.5643 136.27296l123.7323 0l0 -28.228348l56.456696 56.456696l-56.456696 56.456696l0 -28.228348l-123.7323 0z" fill-rule="evenodd"/><path fill="#000000" d="m291.46127 163.78069q0.265625 0.328125 0.359375 0.6875q0.109375 0.34375 0.109375 0.703125q0 0.78125 -0.265625 1.375q-0.265625 0.578125 -0.765625 0.984375q-0.484375 0.40625 -1.171875 0.609375q-0.671875 0.203125 -1.484375 0.203125q-0.484375 0 -0.890625 -0.09375q-0.40625 -0.09375 -0.625 -0.21875q-0.15625 0.140625 -0.265625 0.328125q-0.109375 0.1875 -0.109375 0.4375q0 0.140625 0.078125 0.28125q0.078125 0.140625 0.21875 0.265625q0.140625 0.109375 0.328125 0.1875q0.203125 0.0625 0.4375 0.078125l2.203125 0.078125q0.734375 0.015625 1.328125 0.1875q0.609375 0.171875 1.03125 0.484375q0.421875 0.3125 0.65625 0.75q0.234375 0.4375 0.234375 1.0q0 0.65625 -0.296875 1.21875q-0.28125 0.578125 -0.875 1.0q-0.578125 0.421875 -1.453125 0.671875q-0.875 0.25 -2.03125 0.25q-1.125 0 -1.9375 -0.1875q-0.796875 -0.171875 -1.3125 -0.5q-0.515625 -0.3125 -0.765625 -0.75q-0.25 -0.4375 -0.25 -0.96875q0 -0.3125 0.078125 -0.59375q0.09375 -0.265625 0.25 -0.53125q0.171875 -0.25 0.40625 -0.484375q0.25 -0.234375 0.59375 -0.46875q-0.453125 -0.25 -0.6875 -0.65625q-0.21875 -0.40625 -0.21875 -0.859375q0 -0.3125 0.078125 -0.578125q0.078125 -0.265625 0.203125 -0.5q0.140625 -0.25 0.3125 -0.484375q0.171875 -0.234375 0.359375 -0.453125q-0.328125 -0.328125 -0.5625 -0.796875q-0.21875 -0.484375 -0.21875 -1.203125q0 -0.78125 0.28125 -1.390625q0.28125 -0.609375 0.765625 -1.015625q0.5 -0.421875 1.171875 -0.625q0.6875 -0.21875 1.484375 -0.21875q0.40625 0 0.78125 0.046875q0.390625 0.03125 0.6875 0.140625l3.21875 0l0 1.609375l-1.46875 0zm-5.234375 8.875q0 0.53125 0.53125 0.78125q0.546875 0.265625 1.53125 0.265625q0.640625 0 1.0625 -0.125q0.4375 -0.109375 0.703125 -0.3125q0.28125 -0.1875 0.390625 -0.453125q0.125 -0.25 0.125 -0.515625q0 -0.25 -0.109375 -0.421875q-0.109375 -0.15625 -0.328125 -0.28125q-0.203125 -0.109375 -0.484375 -0.171875q-0.265625 -0.046875 -0.609375 -0.078125l-1.953125 -0.03125q-0.265625 0.1875 -0.4375 0.34375q-0.171875 0.171875 -0.265625 0.328125q-0.09375 0.15625 -0.125 0.3125q-0.03125 0.171875 -0.03125 0.359375zm0.375 -7.421875q0 0.734375 0.421875 1.171875q0.4375 0.421875 1.21875 0.421875q0.40625 0 0.703125 -0.125q0.3125 -0.140625 0.515625 -0.359375q0.203125 -0.234375 0.296875 -0.53125q0.109375 -0.3125 0.109375 -0.640625q0 -0.765625 -0.4375 -1.203125q-0.4375 -0.4375 -1.203125 -0.4375q-0.40625 0 -0.71875 0.140625q-0.3125 0.140625 -0.515625 0.375q-0.1875 0.21875 -0.296875 0.53125q-0.09375 0.3125 -0.09375 0.65625zm13.632294 -5.59375q0 0.296875 -0.109375 0.5625q-0.109375 0.265625 -0.3125 0.46875q-0.1875 0.1875 -0.453125 0.296875q-0.265625 0.109375 -0.578125 0.109375q-0.3125 0 -0.578125 -0.109375q-0.265625 -0.109375 -0.46875 -0.296875q-0.1875 -0.203125 -0.296875 -0.46875q-0.109375 -0.265625 -0.109375 -0.5625q0 -0.3125 0.109375 -0.5625q0.109375 -0.265625 0.296875 -0.46875q0.203125 -0.203125 0.46875 -0.3125q0.265625 -0.125 0.578125 -0.125q0.3125 0 0.578125 0.125q0.265625 0.109375 0.453125 0.3125q0.203125 0.203125 0.3125 0.46875q0.109375 0.25 0.109375 0.5625zm-2.46875 4.25l-2.609375 0l0 -1.71875l4.890625 0l0 7.515625l2.671875 0l0 1.734375l-7.875 0l0 -1.734375l2.921875 0l0 -5.796875zm14.913544 7.4375q-0.609375 0.140625 -1.21875 0.21875q-0.609375 0.078125 -1.15625 0.078125q-0.90625 0 -1.578125 -0.1875q-0.65625 -0.1875 -1.09375 -0.578125q-0.421875 -0.390625 -0.625 -1.0q-0.203125 -0.609375 -0.203125 -1.4375l0 -4.53125l-2.5 0l0 -1.71875l2.5 0l0 -2.375l2.265625 -0.59375l0 2.96875l3.609375 0l0 1.71875l-3.609375 0l0 4.359375q0 0.796875 0.359375 1.203125q0.375 0.40625 1.234375 0.40625q0.546875 0 1.0625 -0.09375q0.515625 -0.09375 0.953125 -0.21875l0 1.78125zm20.358337 -0.265625q-0.65625 0.265625 -1.359375 0.390625q-0.6875 0.125 -1.453125 0.125q-1.109375 0 -1.984375 -0.296875q-0.875 -0.296875 -1.484375 -0.890625q-0.609375 -0.59375 -0.9375 -1.46875q-0.3125 -0.875 -0.3125 -2.015625q0 -1.109375 0.34375 -2.015625q0.34375 -0.90625 0.984375 -1.53125q0.640625 -0.640625 1.53125 -0.984375q0.90625 -0.359375 2.0 -0.359375q0.90625 0 1.515625 0.109375q0.625 0.09375 1.109375 0.234375l0 2.15625q-0.5625 -0.28125 -1.21875 -0.4375q-0.65625 -0.15625 -1.25 -0.15625q-0.625 0 -1.125 0.21875q-0.484375 0.203125 -0.828125 0.578125q-0.328125 0.375 -0.515625 0.90625q-0.171875 0.53125 -0.171875 1.171875q0 0.65625 0.1875 1.1875q0.203125 0.53125 0.546875 0.90625q0.359375 0.359375 0.84375 0.5625q0.5 0.1875 1.09375 0.1875q0.296875 0 0.609375 -0.03125q0.328125 -0.046875 0.65625 -0.125q0.328125 -0.078125 0.640625 -0.171875q0.3125 -0.109375 0.578125 -0.21875l0 1.96875zm11.101044 -4.34375q0 1.09375 -0.3125 2.0q-0.296875 0.90625 -0.890625 1.5625q-0.578125 0.640625 -1.421875 1.0q-0.84375 0.34375 -1.9375 0.34375q-1.015625 0 -1.828125 -0.296875q-0.8125 -0.296875 -1.390625 -0.890625q-0.5625 -0.59375 -0.859375 -1.484375q-0.296875 -0.90625 -0.296875 -2.109375q0 -1.09375 0.3125 -2.0q0.3125 -0.90625 0.890625 -1.53125q0.59375 -0.640625 1.4375 -0.984375q0.859375 -0.359375 1.921875 -0.359375q1.046875 0 1.84375 0.3125q0.8125 0.296875 1.375 0.90625q0.578125 0.59375 0.859375 1.484375q0.296875 0.890625 0.296875 2.046875zm-2.3125 0.0625q0 -1.4375 -0.546875 -2.15625q-0.53125 -0.734375 -1.59375 -0.734375q-0.578125 0 -0.984375 0.234375q-0.40625 0.21875 -0.671875 0.625q-0.265625 0.390625 -0.390625 0.921875q-0.125 0.515625 -0.125 1.125q0 1.453125 0.578125 2.1875q0.59375 0.71875 1.59375 0.71875q0.5625 0 0.96875 -0.21875q0.40625 -0.21875 0.65625 -0.609375q0.265625 -0.40625 0.390625 -0.9375q0.125 -0.546875 0.125 -1.15625zm10.772919 4.640625l0 -6.296875q0 -0.359375 -0.015625 -0.609375q-0.015625 -0.265625 -0.078125 -0.4375q-0.046875 -0.171875 -0.15625 -0.25q-0.109375 -0.09375 -0.28125 -0.09375q-0.28125 0 -0.5625 0.390625q-0.265625 0.375 -0.625 1.296875l0 6.0l-1.890625 0l0 -6.296875q0 -0.359375 -0.03125 -0.609375q-0.015625 -0.265625 -0.078125 -0.4375q-0.046875 -0.171875 -0.15625 -0.25q-0.109375 -0.09375 -0.28125 -0.09375q-0.25 0 -0.546875 0.390625q-0.28125 0.375 -0.640625 1.296875l0 6.0l-1.921875 0l0 -9.25l1.65625 0l0.03125 1.34375q0.203125 -0.40625 0.40625 -0.703125q0.203125 -0.296875 0.421875 -0.484375q0.234375 -0.1875 0.484375 -0.265625q0.265625 -0.078125 0.59375 -0.078125q0.78125 0 1.1875 0.40625q0.40625 0.40625 0.453125 1.125q0.21875 -0.40625 0.421875 -0.703125q0.21875 -0.296875 0.453125 -0.484375q0.234375 -0.1875 0.5 -0.265625q0.28125 -0.078125 0.609375 -0.078125q1.0 0 1.484375 0.703125q0.484375 0.703125 0.484375 2.09375l0 6.640625l-1.921875 0zm10.257294 0l0 -6.296875q0 -0.359375 -0.015625 -0.609375q-0.015625 -0.265625 -0.078125 -0.4375q-0.046875 -0.171875 -0.15625 -0.25q-0.109375 -0.09375 -0.28125 -0.09375q-0.28125 0 -0.5625 0.390625q-0.265625 0.375 -0.625 1.296875l0 6.0l-1.890625 0l0 -6.296875q0 -0.359375 -0.03125 -0.609375q-0.015625 -0.265625 -0.078125 -0.4375q-0.046875 -0.171875 -0.15625 -0.25q-0.109375 -0.09375 -0.28125 -0.09375q-0.25 0 -0.546875 0.390625q-0.28125 0.375 -0.640625 1.296875l0 6.0l-1.921875 0l0 -9.25l1.65625 0l0.03125 1.34375q0.203125 -0.40625 0.40625 -0.703125q0.203125 -0.296875 0.421875 -0.484375q0.234375 -0.1875 0.484375 -0.265625q0.265625 -0.078125 0.59375 -0.078125q0.78125 0 1.1875 0.40625q0.40625 0.40625 0.453125 1.125q0.21875 -0.40625 0.421875 -0.703125q0.21875 -0.296875 0.453125 -0.484375q0.234375 -0.1875 0.5 -0.265625q0.28125 -0.078125 0.609375 -0.078125q1.0 0 1.484375 0.703125q0.484375 0.703125 0.484375 2.09375l0 6.640625l-1.921875 0zm9.179169 -11.78125q0 0.296875 -0.109375 0.5625q-0.109375 0.265625 -0.3125 0.46875q-0.1875 0.1875 -0.453125 0.296875q-0.265625 0.109375 -0.578125 0.109375q-0.3125 0 -0.578125 -0.109375q-0.265625 -0.109375 -0.46875 -0.296875q-0.1875 -0.203125 -0.296875 -0.46875q-0.109375 -0.265625 -0.109375 -0.5625q0 -0.3125 0.109375 -0.5625q0.109375 -0.265625 0.296875 -0.46875q0.203125 -0.203125 0.46875 -0.3125q0.265625 -0.125 0.578125 -0.125q0.3125 0 0.578125 0.125q0.265625 0.109375 0.453125 0.3125q0.203125 0.203125 0.3125 0.46875q0.109375 0.25 0.109375 0.5625zm-2.46875 4.25l-2.609375 0l0 -1.71875l4.890625 0l0 7.515625l2.671875 0l0 1.734375l-7.875 0l0 -1.734375l2.921875 0l0 -5.796875zm14.913544 7.4375q-0.609375 0.140625 -1.21875 0.21875q-0.609375 0.078125 -1.15625 0.078125q-0.90625 0 -1.578125 -0.1875q-0.65625 -0.1875 -1.09375 -0.578125q-0.421875 -0.390625 -0.625 -1.0q-0.203125 -0.609375 -0.203125 -1.4375l0 -4.53125l-2.5 0l0 -1.71875l2.5 0l0 -2.375l2.265625 -0.59375l0 2.96875l3.609375 0l0 1.71875l-3.609375 0l0 4.359375q0 0.796875 0.359375 1.203125q0.375 0.40625 1.234375 0.40625q0.546875 0 1.0625 -0.09375q0.515625 -0.09375 0.953125 -0.21875l0 1.78125z" fill-rule="nonzero"/></g></svg>